<?xml version="1.0" standalone="no"?>
<!DOCTYPE svg PUBLIC "-//W3C//DTD SVG 20010904//EN"
 "http://www.w3.org/TR/2001/REC-SVG-20010904/DTD/svg10.dtd">
<svg version="1.0" xmlns="http://www.w3.org/2000/svg"
 width="512.000000pt" height="512.000000pt" viewBox="0 0 512.000000 512.000000"
 preserveAspectRatio="xMidYMid meet">
<metadata>
Created by potrace 1.14, written by Peter Selinger 2001-2017
</metadata>
<g transform="translate(0.000000,512.000000) scale(0.100000,-0.100000)"
fill="#000000" stroke="none">
<path d="M1021 4927 c-25 -51 -235 -476 -468 -946 -233 -469 -423 -854 -421
-856 2 -1 152 -115 333 -254 182 -138 341 -260 355 -271 14 -11 108 -83 210
-160 102 -78 200 -153 219 -168 19 -15 56 -43 83 -63 l48 -36 178 174 c364
359 722 714 722 719 0 4 -544 892 -585 954 -22 34 -355 574 -378 615 -7 11
-24 39 -39 62 -16 23 -28 46 -28 51 0 6 -3 12 -7 14 -8 3 -73 105 -73 114 0 3
-5 10 -10 17 -6 7 -27 38 -46 70 -20 31 -39 57 -42 56 -4 0 -27 -42 -51 -92z"/>
<path d="M1320 4853 c27 -43 56 -89 62 -103 7 -14 15 -27 18 -30 3 -3 23 -34
44 -70 22 -36 90 -146 151 -245 413 -666 661 -1067 670 -1082 6 -10 32 -53 59
-96 l49 -79 86 86 c47 46 216 213 376 370 159 157 287 287 285 289 -3 3 -248
141 -545 307 -297 166 -582 326 -633 356 -51 30 -95 54 -98 54 -2 0 -21 11
-42 24 -20 12 -64 37 -97 55 -33 18 -67 36 -75 41 -15 10 -294 166 -338 189
-18 10 -13 -3 28 -66z"/>
<path d="M3154 3756 c-105 -104 -1085 -1071 -1403 -1383 l-273 -269 37 -30
c20 -16 51 -40 68 -54 18 -14 59 -45 92 -70 33 -24 62 -46 65 -49 3 -4 23 -19
45 -36 22 -16 45 -33 50 -37 6 -5 42 -32 80 -61 39 -28 72 -54 75 -57 18 -19
78 -58 82 -54 3 2 14 6 24 9 11 2 35 9 54 15 19 6 73 22 120 34 47 13 202 57
345 99 143 41 269 77 280 80 11 3 130 37 265 77 135 39 252 73 260 75 20 5
192 55 555 160 165 48 307 88 315 90 12 3 239 68 570 164 36 11 78 22 93 26
l29 6 -39 29 c-21 16 -42 33 -48 38 -11 8 -853 650 -1065 811 -69 53 -229 174
-355 271 -127 97 -235 178 -240 182 -6 3 -42 -27 -81 -66z"/>
<path d="M160 2946 c0 -3 5 -17 12 -33 6 -15 12 -30 12 -33 3 -14 70 -199 82
-227 8 -17 14 -34 14 -38 0 -6 24 -75 155 -435 13 -36 35 -99 49 -140 15 -41
31 -84 36 -95 5 -11 19 -49 31 -85 59 -175 109 -305 118 -308 6 -2 43 -29 83
-61 40 -31 145 -111 233 -176 88 -66 162 -122 165 -125 3 -3 79 -62 170 -131
91 -69 233 -177 315 -239 83 -63 200 -152 260 -198 148 -112 139 -105 381
-289 117 -90 216 -163 219 -163 2 0 -2 17 -9 38 -8 20 -37 100 -64 177 -117
328 -194 541 -202 560 -4 11 -34 94 -65 185 -32 91 -64 179 -70 195 -7 17 -28
74 -46 129 l-34 98 -87 67 c-48 36 -97 74 -110 83 -39 29 -272 207 -288 221
-9 7 -36 27 -62 45 -26 18 -52 38 -60 44 -7 7 -36 30 -63 50 -28 21 -54 41
-60 46 -5 4 -66 50 -135 102 -69 52 -132 100 -140 107 -16 13 -153 117 -192
145 -13 9 -78 59 -144 110 -67 51 -200 152 -294 223 -95 72 -179 136 -186 143
-13 12 -24 16 -24 8z"/>
<path d="M4825 2328 c-55 -16 -107 -31 -115 -33 -8 -2 -94 -26 -190 -55 -96
-28 -182 -52 -190 -55 -8 -2 -181 -51 -385 -110 -203 -58 -377 -108 -385 -110
-8 -3 -46 -14 -85 -25 -77 -23 -71 -21 -171 -48 -40 -11 -76 -22 -81 -25 -5
-3 -20 -8 -34 -11 -13 -3 -49 -12 -79 -21 -30 -9 -68 -20 -85 -25 -16 -4 -181
-51 -365 -105 -184 -53 -342 -98 -350 -100 -8 -2 -46 -14 -85 -25 -38 -12 -76
-22 -82 -23 -7 0 -13 -3 -13 -7 0 -5 213 -607 227 -640 3 -8 7 -19 9 -25 1 -5
48 -136 104 -290 56 -154 117 -324 135 -378 19 -53 37 -101 40 -106 3 -5 103
88 222 206 204 201 851 839 1456 1436 441 435 607 600 604 602 -1 2 -47 -11
-102 -27z"/>
</g>
</svg>
