<?xml version="1.0" encoding="UTF-8" standalone="no"?>
<svg
   xmlns:dc="http://purl.org/dc/elements/1.1/"
   xmlns:cc="http://creativecommons.org/ns#"
   xmlns:rdf="http://www.w3.org/1999/02/22-rdf-syntax-ns#"
   xmlns:svg="http://www.w3.org/2000/svg"
   xmlns="http://www.w3.org/2000/svg"
   viewBox="0 0 451.72 207.47999"
   height="207.48"
   width="451.72"
   xml:space="preserve"
   id="svg2"
   version="1.1"><metadata
     id="metadata8"><rdf:RDF><cc:Work
         rdf:about=""><dc:format>image/svg+xml</dc:format><dc:type
           rdf:resource="http://purl.org/dc/dcmitype/StillImage" /><dc:title></dc:title></cc:Work></rdf:RDF></metadata><defs
     id="defs6"><clipPath
       id="clipPath18"
       clipPathUnits="userSpaceOnUse"><path
         id="path16"
         d="M 0,841.89 H 595.28 V 0 H 0 Z" /></clipPath><clipPath
       clipPathUnits="userSpaceOnUse"
       id="clipPath38"><path
         d="M 0,283.46 H 283.46 V 0 H 0 Z"
         id="path36" /></clipPath></defs><g
     id="g12"
     transform="matrix(2.6282856,0,0,-2.6282856,423.42111,108.13258)"><path
       d="M 0,0 1.675,4.371 3.351,0 Z M 4.288,9.571 H -0.936 L -6.802,-5.735 h 4.604 l 0.844,2.213 H 4.702 L 5.55,-5.735 h 4.603 z"
       style="fill:#28aae1;fill-opacity:1;fill-rule:nonzero;stroke:none"
       id="path14" /></g><g
     id="g16"
     transform="matrix(2.6282856,0,0,-2.6282856,401.60687,82.958595)"><path
       d="M 0,0 -3.461,-5.556 -6.917,0 h -4.593 l 5.757,-9.246 v -6.037 h 4.592 v 6.037 L 4.595,0 Z"
       style="fill:#28aae1;fill-opacity:1;fill-rule:nonzero;stroke:none"
       id="path18" /></g><g
     id="g20"
     transform="matrix(2.6282856,0,0,-2.6282856,363.46334,82.977774)"><path
       d="m 0,0 h -4.594 v -15.275 h 10.9 v 3.924 H 0 Z"
       style="fill:#28aae1;fill-opacity:1;fill-rule:nonzero;stroke:none"
       id="path22" /></g><g
     id="g24"
     transform="matrix(2.6282856,0,0,-2.6282856,316.84702,123.20552)"><path
       d="M 0,0 H 11.509 V 3.336 H 4.593 v 2.635 h 6.916 V 9.305 H 4.593 v 2.669 h 6.916 v 3.332 L 0,15.306 Z"
       style="fill:#28aae1;fill-opacity:1;fill-rule:nonzero;stroke:none"
       id="path26" /></g><g
     id="g28"
     transform="matrix(2.6282856,0,0,-2.6282856,275.98032,93.295898)"><path
       d="M 0,0 H 4.665 V -11.35 H 9.256 V 0 h 4.661 V 3.926 H 0 Z"
       style="fill:#28aae1;fill-opacity:1;fill-rule:nonzero;stroke:none"
       id="path30" /></g><g
     id="g32"
     transform="matrix(2.6282856,0,0,-2.6282856,-146.36254,613.8465)"><g
       id="g34"
       clip-path="url(#clipPath38)"><g
         id="g40"
         transform="translate(158.0078,195.1841)"><path
           d="m 0,0 c -1.089,0.905 -2.555,1.386 -4.239,1.386 h -2.283 c -0.987,0 -1.388,0.343 -1.388,0.486 0,0.145 0.401,0.491 1.388,0.491 h 7.491 v 4.448 h -7.491 c -1.687,0 -3.154,-0.476 -4.239,-1.38 -1.094,-0.909 -1.72,-2.206 -1.72,-3.559 0,-1.351 0.626,-2.646 1.72,-3.557 1.085,-0.904 2.552,-1.382 4.239,-1.382 h 2.283 c 0.967,0 1.381,-0.328 1.381,-0.492 0,-0.168 -0.414,-0.491 -1.381,-0.491 h -7.547 v -4.452 h 7.547 c 1.684,0 3.15,0.477 4.239,1.383 1.093,0.91 1.72,2.208 1.72,3.56 C 1.72,-2.206 1.093,-0.91 0,0"
           style="fill:#28aae1;fill-opacity:1;fill-rule:nonzero;stroke:none"
           id="path42" /></g><g
         id="g44"
         transform="translate(131.4971,192.4033)"><path
           d="M 0,0 1.675,4.373 3.351,0 Z M -0.935,9.569 -6.803,-5.733 h 4.606 l 0.848,2.21 H 4.7 l 0.85,-2.21 h 4.601 L 4.286,9.569 Z"
           style="fill:#2a3890;fill-opacity:1;fill-rule:nonzero;stroke:none"
           id="path46" /></g><g
         id="g48"
         transform="translate(122.8267,201.9805)"><path
           d="M 0,0 -3.531,-9.354 -7.065,0 h -4.951 l 5.786,-15.31 h 5.395 L 4.953,0 Z"
           style="fill:#2a3890;fill-opacity:1;fill-rule:nonzero;stroke:none"
           id="path50" /></g><g
         id="g52"
         transform="translate(102.8813,191.1187)"><path
           d="M 0,0 C -1.818,0 -3.292,1.433 -3.292,3.202 -3.292,4.97 -1.818,6.405 0,6.405 1.816,6.405 3.291,4.97 3.291,3.202 3.291,1.433 1.819,0 0,0 m 0,10.854 c -4.345,0 -7.866,-3.423 -7.866,-7.652 0,-4.226 3.521,-7.65 7.866,-7.65 4.343,0 7.864,3.424 7.864,7.65 0,4.229 -3.521,7.652 -7.864,7.652"
           style="fill:#2a3890;fill-opacity:1;fill-rule:nonzero;stroke:none"
           id="path54" /></g><g
         id="g56"
         transform="translate(88.7983,194.0781)"><path
           d="m 0,0 -5.354,7.894 h -4.895 V -7.378 h 4.593 v 7.924 l 5.352,-7.924 H 4.594 V 7.894 H 0 Z"
           style="fill:#2a3890;fill-opacity:1;fill-rule:nonzero;stroke:none"
           id="path58" /></g><g
         id="g60"
         transform="translate(171.6289,91.8271)"><path
           d="M 0,0 1.405,3.768 2.812,0 Z m 3.598,8.25 h -4.383 l -4.92,-13.194 h 3.861 l 0.709,1.907 h 5.08 l 0.711,-1.907 h 3.862 z"
           style="fill:#28aae1;fill-opacity:1;fill-rule:nonzero;stroke:none"
           id="path62" /></g><g
         id="g64"
         transform="translate(164.668,100.083)"><path
           d="M 0,0 -2.904,-4.789 -5.803,0 h -3.852 l 4.829,-7.97 v -5.204 h 3.851 V -7.97 L 3.854,0 Z"
           style="fill:#28aae1;fill-opacity:1;fill-rule:nonzero;stroke:none"
           id="path66" /></g><g
         id="g68"
         transform="translate(152.4941,100.0771)"><path
           d="m 0,0 h -3.854 v -13.168 h 9.143 v 3.383 H 0 Z"
           style="fill:#28aae1;fill-opacity:1;fill-rule:nonzero;stroke:none"
           id="path70" /></g><g
         id="g72"
         transform="translate(137.6157,86.8828)"><path
           d="M 0,0 H 9.656 V 2.876 H 3.854 V 5.147 H 9.656 V 8.021 H 3.854 v 2.301 h 5.802 v 2.872 H 0 Z"
           style="fill:#28aae1;fill-opacity:1;fill-rule:nonzero;stroke:none"
           id="path74" /></g><g
         id="g76"
         transform="translate(124.5742,96.6924)"><path
           d="M 0,0 H 3.913 V -9.783 H 7.764 V 0 h 3.91 V 3.385 H 0 Z"
           style="fill:#28aae1;fill-opacity:1;fill-rule:nonzero;stroke:none"
           id="path78" /></g><g
         id="g80"
         transform="translate(122.3223,94.2158)"><path
           d="m 0,0 c -0.913,0.78 -2.143,1.194 -3.556,1.194 h -1.915 c -0.827,0 -1.163,0.297 -1.163,0.42 0,0.125 0.336,0.424 1.163,0.424 h 6.284 v 3.834 h -6.284 c -1.415,0 -2.645,-0.41 -3.555,-1.189 -0.919,-0.785 -1.443,-1.903 -1.443,-3.069 0,-1.165 0.524,-2.28 1.443,-3.066 0.91,-0.779 2.14,-1.192 3.555,-1.192 h 1.915 c 0.811,0 1.159,-0.282 1.159,-0.424 0,-0.144 -0.348,-0.422 -1.159,-0.422 h -6.33 v -3.838 h 6.33 c 1.413,0 2.643,0.409 3.556,1.191 0.917,0.784 1.443,1.905 1.443,3.069 C 1.443,-1.901 0.917,-0.784 0,0"
           style="fill:#28aae1;fill-opacity:1;fill-rule:nonzero;stroke:none"
           id="path82" /></g><g
         id="g84"
         transform="translate(156.2344,108.5977)"><path
           d="M 0,0 1.404,3.771 2.812,0 Z M -0.783,8.25 -5.705,-4.942 h 3.863 l 0.711,1.906 H 3.943 L 4.656,-4.942 H 8.515 L 3.596,8.25 Z"
           style="fill:#2a3890;fill-opacity:1;fill-rule:nonzero;stroke:none"
           id="path86" /></g><g
         id="g88"
         transform="translate(148.9619,116.8555)"><path
           d="M 0,0 -2.962,-8.064 -5.927,0 h -4.152 l 4.853,-13.2 h 4.525 L 4.154,0 Z"
           style="fill:#2a3890;fill-opacity:1;fill-rule:nonzero;stroke:none"
           id="path90" /></g><g
         id="g92"
         transform="translate(132.231,107.4893)"><path
           d="m 0,0 c -1.525,0 -2.761,1.237 -2.761,2.761 0,1.526 1.236,2.762 2.761,2.762 1.524,0 2.76,-1.236 2.76,-2.762 C 2.76,1.237 1.526,0 0,0 m 0,9.358 c -3.645,0 -6.599,-2.95 -6.599,-6.597 0,-3.642 2.954,-6.595 6.599,-6.595 3.643,0 6.597,2.953 6.597,6.595 0,3.647 -2.954,6.597 -6.597,6.597"
           style="fill:#2a3890;fill-opacity:1;fill-rule:nonzero;stroke:none"
           id="path94" /></g><g
         id="g96"
         transform="translate(120.418,110.043)"><path
           d="M 0,0 -4.491,6.805 H -8.597 V -6.361 h 3.852 v 6.83 l 4.49,-6.83 H 3.854 V 6.805 H 0 Z"
           style="fill:#2a3890;fill-opacity:1;fill-rule:nonzero;stroke:none"
           id="path98" /></g><g
         id="g100"
         transform="translate(102.0215,85.7344)"><path
           d="m 0,0 -0.652,20.749 1.53,-1.92 -10.477,3.272 -0.082,0.026 c -0.968,0.302 -1.507,1.331 -1.205,2.299 0.098,0.314 0.279,0.588 0.503,0.797 l 35.266,32.764 0.025,0.023 c 0.286,0.267 0.733,0.254 1.005,-0.023 L 48.143,35.354 24.884,56.927 h 1.03 L -7.787,22.556 -8.572,25.679 2.045,22.897 C 2.911,22.67 3.501,21.923 3.568,21.077 L 3.575,20.976 5.167,0.333 Z"
           style="fill:#28aae1;fill-opacity:1;fill-rule:nonzero;stroke:none"
           id="path102" /></g><g
         id="g104"
         transform="translate(81.7017,78.9473)"><path
           d="m 0,0 c 0,0 0.363,0.198 1.042,0.569 0.338,0.191 0.77,0.396 1.278,0.644 0.504,0.26 1.102,0.512 1.771,0.798 1.345,0.553 3.006,1.185 4.972,1.722 1.962,0.548 4.218,1.036 6.71,1.364 2.491,0.33 5.213,0.522 8.09,0.543 2.875,0.008 5.907,-0.122 9.018,-0.423 3.114,-0.286 6.31,-0.717 9.534,-1.237 3.227,-0.515 6.48,-1.127 9.721,-1.75 3.23,-0.637 6.46,-1.275 9.64,-1.902 1.586,-0.298 3.159,-0.594 4.714,-0.887 1.554,-0.277 3.093,-0.541 4.604,-0.783 3.025,-0.48 5.954,-0.863 8.739,-1.11 2.786,-0.241 5.426,-0.364 7.862,-0.326 2.435,0.036 4.668,0.199 6.635,0.465 1.964,0.274 3.668,0.621 5.06,0.968 1.381,0.374 2.468,0.696 3.197,0.953 0.731,0.256 1.121,0.392 1.121,0.392 0,0 -0.365,-0.194 -1.049,-0.56 -0.693,-0.352 -1.72,-0.851 -3.076,-1.388 -1.359,-0.519 -3.042,-1.096 -5.027,-1.563 -1.982,-0.477 -4.26,-0.876 -6.762,-1.109 -2.503,-0.239 -5.228,-0.305 -8.101,-0.226 -2.871,0.09 -5.891,0.332 -8.988,0.707 -3.098,0.373 -6.28,0.862 -9.489,1.43 -3.212,0.557 -6.453,1.195 -9.687,1.814 -3.232,0.639 -6.458,1.257 -9.631,1.834 C 40.31,1.22 38.736,1.492 37.179,1.745 35.622,1.988 34.083,2.221 32.567,2.42 29.537,2.824 26.599,3.101 23.81,3.252 21.02,3.396 18.379,3.396 15.946,3.269 13.513,3.14 11.286,2.89 9.329,2.551 7.373,2.204 5.681,1.802 4.299,1.417 2.919,1.018 1.847,0.673 1.118,0.404 0.389,0.141 0,0 0,0"
           style="fill:#2a3890;fill-opacity:1;fill-rule:nonzero;stroke:none"
           id="path106" /></g><g
         id="g108"
         transform="translate(81.7017,78.9473)"><path
           d="m 0,0 c 0,0 0.363,0.198 1.042,0.569 0.338,0.191 0.77,0.396 1.278,0.644 0.504,0.26 1.102,0.512 1.771,0.798 1.345,0.553 3.006,1.185 4.972,1.722 1.962,0.548 4.218,1.036 6.71,1.364 2.491,0.33 5.213,0.522 8.09,0.543 2.875,0.008 5.907,-0.122 9.018,-0.423 3.114,-0.286 6.31,-0.717 9.534,-1.237 3.227,-0.515 6.48,-1.127 9.721,-1.75 3.23,-0.637 6.46,-1.275 9.64,-1.902 1.586,-0.298 3.159,-0.594 4.714,-0.887 1.554,-0.277 3.093,-0.541 4.604,-0.783 3.025,-0.48 5.954,-0.863 8.739,-1.11 2.786,-0.241 5.426,-0.364 7.862,-0.326 2.435,0.036 4.668,0.199 6.635,0.465 1.964,0.274 3.668,0.621 5.06,0.968 1.381,0.374 2.468,0.696 3.197,0.953 0.731,0.256 1.121,0.392 1.121,0.392 0,0 -0.365,-0.194 -1.049,-0.56 -0.693,-0.352 -1.72,-0.851 -3.076,-1.388 -1.359,-0.519 -3.042,-1.096 -5.027,-1.563 -1.982,-0.477 -4.26,-0.876 -6.762,-1.109 -2.503,-0.239 -5.228,-0.305 -8.101,-0.226 -2.871,0.09 -5.891,0.332 -8.988,0.707 -3.098,0.373 -6.28,0.862 -9.489,1.43 -3.212,0.557 -6.453,1.195 -9.687,1.814 -3.232,0.639 -6.458,1.257 -9.631,1.834 C 40.31,1.22 38.736,1.492 37.179,1.745 35.622,1.988 34.083,2.221 32.567,2.42 29.537,2.824 26.599,3.101 23.81,3.252 21.02,3.396 18.379,3.396 15.946,3.269 13.513,3.14 11.286,2.89 9.329,2.551 7.373,2.204 5.681,1.802 4.299,1.417 2.919,1.018 1.847,0.673 1.118,0.404 0.389,0.141 0,0 0,0 Z"
           style="fill:none;stroke:#2a3890;stroke-width:1;stroke-linecap:butt;stroke-linejoin:miter;stroke-miterlimit:10;stroke-dasharray:none;stroke-opacity:1"
           id="path110" /></g><g
         id="g112"
         transform="translate(58.0688,196.688)"><path
           d="m 0,0 0.083,-0.026 8.99,-2.808 0.296,-11.833 c 1.75,1.188 2.515,1.531 4.751,2.304 l -0.864,11.212 -0.007,0.102 c -0.066,0.844 -0.657,1.592 -1.522,1.82 L 4.169,2.75 35.104,34.298 57.824,13.226 35.594,35.859 c -0.272,0.277 -0.719,0.289 -1.005,0.023 L 34.564,35.859 -0.702,3.096 C -0.926,2.886 -1.107,2.613 -1.205,2.299 -1.507,1.331 -0.968,0.302 0,0"
           style="fill:#28aae1;fill-opacity:1;fill-rule:nonzero;stroke:none"
           id="path114" /></g><g
         id="g116"
         transform="translate(60.4834,170.4727)"><path
           d="m 0,0 c 0,0 0.572,0.358 1.645,1.029 0.532,0.342 1.215,0.715 2.017,1.166 0.796,0.471 1.742,0.93 2.802,1.453 2.129,1.013 4.762,2.176 7.888,3.186 3.119,1.031 6.712,1.968 10.69,2.641 3.978,0.676 8.33,1.122 12.938,1.279 4.608,0.137 9.472,0.039 14.47,-0.347 C 57.453,10.042 62.594,9.435 67.785,8.673 72.978,7.92 78.22,6.999 83.442,6.061 88.646,5.097 93.852,4.133 98.975,3.184 c 2.555,-0.449 5.091,-0.894 7.595,-1.333 2.504,-0.414 4.98,-0.805 7.414,-1.159 4.868,-0.701 9.579,-1.24 14.055,-1.549 4.473,-0.299 8.711,-0.4 12.612,-0.229 3.901,0.165 7.47,0.54 10.611,1.085 3.135,0.556 5.848,1.227 8.063,1.885 2.196,0.705 3.924,1.308 5.08,1.784 1.159,0.472 1.779,0.723 1.779,0.723 0,0 -0.577,-0.352 -1.657,-1.012 -1.092,-0.638 -2.716,-1.543 -4.864,-2.528 -2.157,-0.954 -4.826,-2.023 -7.986,-2.912 -3.155,-0.91 -6.783,-1.695 -10.783,-2.205 -4,-0.519 -8.365,-0.747 -12.971,-0.732 -4.607,0.034 -9.455,0.324 -14.435,0.841 -4.982,0.514 -10.103,1.223 -15.271,2.069 C 93.045,-1.263 87.822,-0.297 82.611,0.637 77.403,1.604 72.206,2.535 67.095,3.398 64.538,3.815 62.002,4.219 59.497,4.589 56.99,4.944 54.513,5.28 52.076,5.56 47.201,6.13 42.481,6.483 38.004,6.627 33.528,6.759 29.295,6.646 25.402,6.323 21.509,5.997 17.953,5.472 14.832,4.802 11.713,4.121 9.021,3.353 6.824,2.63 4.632,1.882 2.928,1.241 1.772,0.745 0.616,0.259 0,0 0,0"
           style="fill:#2a3890;fill-opacity:1;fill-rule:nonzero;stroke:none"
           id="path118" /></g></g></g></svg>
